<svg width="119" height="136" viewBox="0 0 119 136" fill="none" xmlns="http://www.w3.org/2000/svg">
<g clip-path="url(#clip0_343:69)">
<path d="M80.3512 30.4579C80.0701 30.1368 79.7207 29.9045 79.3435 29.7698L56.62 21.6894C47.5332 18.4578 41.6213 24.0952 40.0288 25.9045C39.0996 26.9568 38.3881 28.0665 38.0235 29.0328L27.9011 55.9979C27.3213 57.5406 27.5188 59.5965 28.4278 61.6467C29.7291 64.5744 32.0736 66.6848 34.8764 67.4446C38.0134 68.2963 41.2668 67.1407 43.8139 64.2589C44.4798 63.5048 45.0469 62.6733 45.3811 61.9679L48.7839 54.8194C49.3435 53.6352 50.1562 52.408 51.012 51.4388C53.9312 48.1298 55.3187 49.6438 55.9086 50.2861C61.0002 55.8517 87.6936 86.2118 87.6936 86.2118C88.643 87.2871 88.4455 89.3258 87.2581 90.6678C86.0732 92.0069 84.2705 92.2363 83.3236 91.1667L75.8242 82.6763C74.857 81.5781 73.2974 81.5781 72.3302 82.6763C71.3631 83.7631 71.3631 85.538 72.3302 86.6305L79.8296 95.1266C80.7765 96.1962 80.579 98.2349 79.3941 99.574C78.2092 100.919 76.404 101.142 75.4622 100.073L67.9602 91.5825C66.9931 90.4871 65.4284 90.4871 64.4663 91.5825C63.4991 92.6692 63.4991 94.4442 64.4663 95.5395L71.9656 104.033C72.9126 105.105 72.7075 107.144 71.5251 108.486C70.3427 109.825 68.5426 110.054 67.5931 108.979L60.0938 100.489C59.1316 99.3962 57.5644 99.3962 56.5998 100.489C55.6377 101.581 55.6377 103.356 56.5998 104.443L64.0992 112.939C65.0486 114.014 64.8461 116.053 63.6637 117.395C62.4737 118.737 60.6735 118.963 59.7292 117.891L50.5993 107.542C51.9032 105.323 51.5487 102.103 49.6144 99.9037C47.4471 97.4521 44.1126 97.2255 42.1834 99.4162C44.1126 97.2284 43.9228 93.4578 41.7504 91.0004C39.5781 88.5459 36.2512 88.3194 34.3219 90.5043C36.2512 88.3194 36.0563 84.5516 33.8814 82.0971C31.7141 79.6369 28.3873 79.4132 26.4529 81.5982C28.3873 79.4132 28.1872 75.6454 26.0174 73.1823C23.9869 70.8827 20.9613 70.5701 18.994 72.3221L4.21051 55.5793C3.24587 54.484 1.67865 54.484 0.714012 55.5793C-0.248095 56.6689 -0.248095 58.4438 0.714012 59.5392L15.4596 76.2361L11.087 81.1881C9.15777 83.3702 9.35272 87.138 11.5276 89.6011C13.6949 92.0556 17.0217 92.2821 18.9535 90.0943C17.0217 92.2821 17.2192 96.0471 19.3916 98.5073C21.5588 100.959 24.8882 101.191 26.82 99.0033C24.8882 101.191 25.0832 104.956 27.2555 107.413C29.4279 109.874 32.7547 110.097 34.684 107.912C32.7547 110.094 32.9497 113.859 35.122 116.322C37.2918 118.777 40.6161 119.004 42.5505 116.816L47.1686 111.588L56.2352 121.854C59.1291 125.131 64.0232 124.902 67.1576 121.358C68.6844 119.629 69.4996 117.421 69.6135 115.236C71.5428 115.107 73.4949 114.181 75.0191 112.449C76.5483 110.72 77.3686 108.512 77.4851 106.327C79.4118 106.198 81.3563 105.274 82.8906 103.542C84.4173 101.811 85.2351 99.6055 85.3465 97.4177C87.2783 97.2915 89.2279 96.3682 90.7571 94.6305C93.8865 91.0864 94.0789 85.5351 91.1926 82.2634L87.3695 77.9308L103.067 60.1557C104.032 59.0661 104.032 57.2911 103.067 56.1987L80.3512 30.4579Z" fill="#F8F8F8"/>
<path d="M117.554 36.7146L97.5501 14.0592C95.6209 11.8714 92.489 11.8714 90.5571 14.0592L83.5641 21.9733C81.6349 24.1582 81.6349 27.7052 83.5641 29.8902L103.571 52.5513C105.503 54.7363 108.635 54.7363 110.564 52.5513L117.554 44.6344C119.481 42.4466 119.481 38.8996 117.554 36.7146ZM107.055 48.2531C104.817 48.2531 102.999 46.1971 102.999 43.6595C102.999 41.1218 104.817 39.063 107.055 39.063C109.295 39.063 111.113 41.119 111.113 43.6595C111.111 46.1943 109.295 48.2531 107.055 48.2531Z" fill="#F8F8F8"/>
</g>
<defs>
<clipPath id="clip0_343:69">
<rect y="0.903564" width="119" height="134.771" rx="15" fill="white"/>
</clipPath>
</defs>
</svg>
