<svg width="111" height="129" viewBox="0 0 111 129" fill="none" xmlns="http://www.w3.org/2000/svg">
<path d="M109.15 124.032V33.2865H86.95V124.032H81.4V51.9009H59.2V124.032H53.65V70.5154H31.45V124.032H25.9V91.4566H3.7V124.032H1.85C0.8288 124.032 0 125.072 0 126.359C0 127.645 0.8288 128.685 1.85 128.685H3.7H25.9H31.45H53.65H59.2H81.4H86.95H109.15C110.171 128.685 111 127.645 111 126.359C111 125.072 110.171 124.032 109.15 124.032Z" fill="white"/>
<path d="M14.8555 59.6492C15.1681 59.6492 15.4882 59.5491 15.7786 59.3374L82.8763 10.6141L78.6768 22.2248C78.2531 23.3952 78.6638 24.775 79.5944 25.3055C79.8423 25.4498 80.1031 25.515 80.3603 25.515C81.0633 25.515 81.7348 25.0077 82.0456 24.1514L88.6353 5.93255C88.6557 5.87438 88.652 5.81156 88.6686 5.75106C88.7038 5.62774 88.7315 5.50907 88.75 5.37877C88.7593 5.31362 88.7889 5.2601 88.7926 5.19263C88.7944 5.16471 88.7852 5.14144 88.787 5.11352C88.7907 5.0251 88.7833 4.94366 88.7796 4.85524C88.7741 4.72727 88.7574 4.60627 88.7352 4.4783C88.7204 4.38988 88.7167 4.29913 88.6927 4.21304C88.6705 4.12928 88.6316 4.05947 88.602 3.97803C88.578 3.92452 88.578 3.86169 88.5521 3.80585C88.5262 3.75001 88.4818 3.71743 88.4522 3.66392C88.4133 3.59178 88.3837 3.515 88.3375 3.44985C88.2894 3.38004 88.2283 3.33118 88.1728 3.26836C88.097 3.18227 88.0211 3.10315 87.936 3.03335C87.8787 2.98681 87.8269 2.93562 87.764 2.89607C87.7436 2.88443 87.7325 2.86117 87.7122 2.84953C87.6659 2.82394 87.616 2.82859 87.5697 2.80765C87.468 2.76111 87.3681 2.72854 87.2626 2.70527C87.2145 2.69364 87.1757 2.65873 87.1257 2.65408L71.286 0.722832C70.2593 0.592531 69.3639 1.53721 69.2658 2.8123C69.1659 4.09205 69.9115 5.22986 70.9271 5.35318L81.0207 6.58406L13.9286 55.3074C13.0425 55.9496 12.7409 57.3736 13.2515 58.4858C13.5938 59.2327 14.2154 59.6492 14.8555 59.6492Z" fill="white"/>
</svg>
