<svg width="760" height="383" viewBox="0 0 760 383" fill="none" xmlns="http://www.w3.org/2000/svg">
<path d="M525.094 103.901C525.094 257.389 285.699 350.859 138.594 350.859C-8.51083 350.859 0.0944042 279.606 0.0944042 126.117C0.0944042 -27.3708 131.989 12.3574 279.094 12.3574C426.199 12.3574 525.094 -49.5872 525.094 103.901Z" fill="#829399"/>
<path d="M367.893 267.892C377.688 267.892 385.629 259.398 385.629 248.921C385.629 238.443 377.688 229.949 367.893 229.949C358.097 229.949 350.156 238.443 350.156 248.921C350.156 259.398 358.097 267.892 367.893 267.892Z" fill="#9E9E9E"/>
<path d="M366.202 256.929L360.894 249.628L363.981 247.06L366.495 250.517L374.986 240.928L377.826 243.806L366.202 256.929Z" fill="white"/>
<path d="M706.821 75.2807H443.151V15H706.821V75.2807Z" fill="white"/>
<path d="M477.317 60.4534C485.224 60.4534 491.633 53.5975 491.633 45.1403C491.633 36.6832 485.224 29.8273 477.317 29.8273C469.41 29.8273 463 36.6832 463 45.1403C463 53.5975 469.41 60.4534 477.317 60.4534Z" fill="#FFC757"/>
<path d="M510.381 34.9316C509.748 34.9316 509.141 35.2005 508.693 35.6792C508.246 36.1578 507.995 36.8069 507.995 37.4838C507.995 38.1607 508.246 38.8099 508.693 39.2885C509.141 39.7671 509.748 40.036 510.381 40.036H684.59C685.222 40.0344 685.827 39.7648 686.274 39.2864C686.72 38.8079 686.971 38.1597 686.971 37.4838C686.971 36.808 686.72 36.1597 686.274 35.6813C685.827 35.2028 685.222 34.9332 684.59 34.9316H510.381Z" fill="#FFC757"/>
<path d="M510.381 50.2446C509.748 50.2432 509.141 50.5107 508.692 50.9883C508.244 51.466 507.991 52.1145 507.99 52.7914C507.988 53.4683 508.239 54.118 508.685 54.5977C509.132 55.0773 509.738 55.3475 510.371 55.349H620.508C620.821 55.3495 621.132 55.2839 621.422 55.1559C621.712 55.0279 621.976 54.84 622.198 54.603C622.42 54.3659 622.596 54.0844 622.716 53.7745C622.836 53.4645 622.898 53.1323 622.898 52.7968C622.898 52.4613 622.836 52.1291 622.716 51.8191C622.596 51.5092 622.42 51.2277 622.198 50.9906C621.976 50.7536 621.712 50.5657 621.422 50.4377C621.132 50.3097 620.821 50.2441 620.508 50.2446H510.381Z" fill="#FFC757"/>
<path d="M706.821 75.2807H443.151V15H706.821V75.2807ZM447.176 70.9749H702.795V19.3058H447.176V70.9749Z" fill="#CCCCCC"/>
<path d="M706.821 150.632H443.151V90.3509H706.821V150.632Z" fill="white"/>
<path d="M477.317 135.804C485.224 135.804 491.633 128.948 491.633 120.491C491.633 112.034 485.224 105.178 477.317 105.178C469.41 105.178 463 112.034 463 120.491C463 128.948 469.41 135.804 477.317 135.804Z" fill="#E6E6E6"/>
<path d="M510.381 110.282C509.748 110.282 509.141 110.551 508.693 111.03C508.246 111.509 507.995 112.158 507.995 112.835C507.995 113.512 508.246 114.161 508.693 114.639C509.141 115.118 509.748 115.387 510.381 115.387H684.59C685.222 115.385 685.827 115.116 686.274 114.637C686.72 114.159 686.971 113.51 686.971 112.835C686.971 112.159 686.72 111.511 686.274 111.032C685.827 110.554 685.222 110.284 684.59 110.282H510.381Z" fill="#E6E6E6"/>
<path d="M510.381 125.596C509.748 125.594 509.141 125.862 508.692 126.339C508.244 126.817 507.991 127.465 507.99 128.142C507.988 128.819 508.239 129.469 508.685 129.949C509.132 130.428 509.738 130.698 510.371 130.7H620.508C620.821 130.7 621.132 130.635 621.422 130.507C621.712 130.379 621.976 130.191 622.198 129.954C622.42 129.717 622.596 129.435 622.716 129.125C622.836 128.815 622.898 128.483 622.898 128.148C622.898 127.812 622.836 127.48 622.716 127.17C622.596 126.86 622.42 126.579 622.198 126.342C621.976 126.104 621.712 125.917 621.422 125.789C621.132 125.661 620.821 125.595 620.508 125.596H510.381Z" fill="#E6E6E6"/>
<path d="M706.821 150.632H443.151V90.3509H706.821V150.632ZM447.176 146.326H702.795V94.6567H447.176V146.326Z" fill="#E6E6E6"/>
<path d="M706.821 225.982H443.151V165.702H706.821V225.982Z" fill="white"/>
<path d="M477.317 211.155C485.224 211.155 491.633 204.299 491.633 195.842C491.633 187.385 485.224 180.529 477.317 180.529C469.41 180.529 463 187.385 463 195.842C463 204.299 469.41 211.155 477.317 211.155Z" fill="#E6E6E6"/>
<path d="M510.381 185.633C509.748 185.633 509.141 185.902 508.693 186.381C508.246 186.859 507.995 187.509 507.995 188.185C507.995 188.862 508.246 189.512 508.693 189.99C509.141 190.469 509.748 190.738 510.381 190.738H684.59C685.222 190.736 685.827 190.466 686.274 189.988C686.72 189.51 686.971 188.861 686.971 188.185C686.971 187.51 686.72 186.861 686.274 186.383C685.827 185.904 685.222 185.635 684.59 185.633H510.381Z" fill="#E6E6E6"/>
<path d="M510.381 200.946C509.748 200.945 509.141 201.213 508.692 201.69C508.244 202.168 507.991 202.816 507.99 203.493C507.988 204.17 508.239 204.82 508.685 205.299C509.132 205.779 509.738 206.049 510.371 206.051H620.508C620.821 206.051 621.132 205.986 621.422 205.858C621.712 205.73 621.976 205.542 622.198 205.305C622.42 205.068 622.596 204.786 622.716 204.476C622.836 204.166 622.898 203.834 622.898 203.499C622.898 203.163 622.836 202.831 622.716 202.521C622.596 202.211 622.42 201.929 622.198 201.692C621.976 201.455 621.712 201.267 621.422 201.139C621.132 201.011 620.821 200.946 620.508 200.946H510.381Z" fill="#E6E6E6"/>
<path d="M706.821 225.982H443.151V165.702H706.821V225.982ZM447.176 221.677H702.795V170.007H447.176V221.677Z" fill="#E6E6E6"/>
<path d="M269.692 240.284C269.091 239.458 268.666 238.501 268.448 237.48C268.23 236.459 268.224 235.4 268.431 234.377C268.637 233.353 269.051 232.391 269.642 231.557C270.234 230.723 270.99 230.038 271.856 229.55L270.458 213.253L279.509 209.929L281.181 232.973C281.851 234.583 281.945 236.4 281.446 238.08C280.947 239.76 279.889 241.186 278.473 242.087C277.056 242.988 275.38 243.303 273.762 242.97C272.144 242.638 270.695 241.682 269.692 240.284Z" fill="#FFB8B8"/>
<path d="M279.409 146.751C279.409 146.751 285.62 132.808 291.14 137.712C296.659 142.617 283.573 183.845 283.573 183.845L281.582 223.867L271.092 222.746L268.126 183.753L279.409 146.751Z" fill="#CCCCCC"/>
<path d="M196.091 353.036L203.877 359.778L231.896 330.861L220.403 320.91L196.091 353.036Z" fill="#FFB8B8"/>
<path d="M196.162 348.597L211.498 361.875L211.498 361.875C214.09 364.12 215.742 367.373 216.091 370.921C216.44 374.468 215.458 378.018 213.36 380.79L213.102 381.13L187.994 359.39L196.162 348.597Z" fill="#2F2E41"/>
<path d="M304.31 371.752H314.328L319.094 330.419L304.308 330.419L304.31 371.752Z" fill="#FFB8B8"/>
<path d="M301.754 368.254L321.484 368.253H321.485C324.82 368.253 328.018 369.67 330.375 372.192C332.733 374.714 334.058 378.135 334.058 381.701V382.138L301.755 382.14L301.754 368.254Z" fill="#2F2E41"/>
<path d="M321.889 177.98C321.889 177.98 340.684 202.454 336.599 226.928C332.513 251.402 329.244 269.757 329.244 269.757L322.707 324.823C322.707 324.823 325.158 339.82 321.889 343.684C321.889 343.684 326.793 352.793 317.804 356.29C308.815 359.786 303.965 355.082 303.965 355.082C303.965 355.082 297.374 344.927 301.46 342.305L303.181 234.239L237.721 325.697C237.721 325.697 236.518 336.822 228.13 336.941L218.109 344.927L206.668 337.934L212.389 330.068C212.389 330.068 209.12 321.327 216.475 319.579L258.967 260.142L269.591 229.55C269.591 229.55 275.311 205.95 290.837 196.336V186.105L321.889 177.98Z" fill="#2F2E41"/>
<path d="M289.611 135.588C292.085 132.46 295.549 130.415 299.342 129.843C303.134 129.27 306.992 130.209 310.179 132.482L310.858 132.966C318.111 141.752 322.986 152.488 324.958 164.018L328.018 181.914L289.611 190.813L280.607 157.598C279.465 153.382 279.74 148.871 281.385 144.85C283.03 140.828 285.941 137.551 289.611 135.588V135.588Z" fill="#CCCCCC"/>
<path d="M352.711 244.089C351.647 243.717 350.671 243.099 349.854 242.28C349.036 241.461 348.396 240.46 347.98 239.348C347.563 238.235 347.379 237.039 347.442 235.843C347.504 234.646 347.811 233.479 348.34 232.423L337.261 217.92L343.859 208.568L359.236 229.285C360.835 230.355 362.012 232.014 362.544 233.95C363.076 235.885 362.925 237.962 362.121 239.787C361.317 241.612 359.915 243.057 358.18 243.85C356.446 244.643 354.5 244.728 352.711 244.089H352.711Z" fill="#FFB8B8"/>
<path d="M305.955 148.699C305.955 148.699 303.503 131.218 311.675 132.092C319.847 132.966 332.104 181.04 332.104 181.04L354.168 220.373L343.544 226.491L317.395 191.528L305.955 148.699Z" fill="#CCCCCC"/>
<path d="M320.919 123.142H282.006C281.205 123.141 280.438 122.801 279.872 122.195C279.306 121.59 278.987 120.769 278.987 119.913V101.972C278.987 95.5963 281.355 89.4815 285.57 84.9731C289.785 80.4646 295.501 77.9318 301.462 77.9318C307.423 77.9318 313.14 80.4646 317.355 84.9731C321.57 89.4815 323.938 95.5963 323.938 101.972V119.913C323.937 120.769 323.619 121.59 323.053 122.195C322.487 122.801 321.719 123.141 320.919 123.142Z" fill="#2F2E41"/>
<path d="M306.081 122.725C315.182 122.725 322.559 114.833 322.559 105.099C322.559 95.3645 315.182 87.4733 306.081 87.4733C296.98 87.4733 289.603 95.3645 289.603 105.099C289.603 114.833 296.98 122.725 306.081 122.725Z" fill="#FFB8B8"/>
<path d="M329.255 103.766H308.517L308.305 100.112L307.241 103.766H304.048L303.627 96.5242L301.519 103.766H295.341V103.407C295.341 92.9213 302.292 84.3904 310.836 84.3904H313.76C322.304 84.3904 329.255 92.9213 329.255 103.407V103.766Z" fill="#2F2E41"/>
<path d="M309.376 126.491C309.122 126.491 308.869 126.47 308.619 126.429L283.935 122.362V94.8629C283.935 92.0537 284.979 89.3596 286.836 87.3732C288.693 85.3868 291.212 84.2708 293.838 84.2708H311.107L310.434 85.0032C301.075 95.1956 308.126 111.723 313.162 120.667C313.532 121.31 313.699 122.063 313.639 122.815C313.578 123.567 313.294 124.278 312.827 124.845C312.399 125.371 311.868 125.791 311.272 126.076C310.675 126.36 310.028 126.502 309.376 126.491Z" fill="#2F2E41"/>
<path d="M741.5 64C751.717 64 760 55.7173 760 45.5C760 35.2827 751.717 27 741.5 27C731.283 27 723 35.2827 723 45.5C723 55.7173 731.283 64 741.5 64Z" fill="#FFC757"/>
<path d="M739.308 53.0002L734 45.6998L737.087 43.1314L739.601 46.5882L748.092 37L750.932 39.8777L739.308 53.0002Z" fill="white"/>
<path d="M391.29 383H135.671C135.493 383 135.322 382.924 135.197 382.79C135.071 382.655 135 382.473 135 382.282C135 382.092 135.071 381.909 135.197 381.775C135.322 381.64 135.493 381.565 135.671 381.565H391.29C391.468 381.565 391.638 381.64 391.764 381.775C391.89 381.909 391.961 382.092 391.961 382.282C391.961 382.473 391.89 382.655 391.764 382.79C391.638 382.924 391.468 383 391.29 383Z" fill="white"/>
</svg>
