<svg width="50" height="51" viewBox="0 0 50 51" fill="none" xmlns="http://www.w3.org/2000/svg">
<path d="M25 0.916504C11.2225 0.916504 0 11.952 0 25.4998C0 39.0477 11.2225 50.0832 25 50.0832C38.7775 50.0832 50 39.0477 50 25.4998C50 11.952 38.7775 0.916504 25 0.916504ZM25 5.83317C36.0753 5.83317 45 14.6091 45 25.4998C45 36.3906 36.0753 45.1665 25 45.1665C13.9247 45.1665 5 36.3906 5 25.4998C5 14.6091 13.9247 5.83317 25 5.83317ZM22.5 13.2082V23.0415H12.5V27.9582H22.5V37.7915H27.5V27.9582H37.5V23.0415H27.5V13.2082H22.5Z" fill="white"/>
</svg>
