<svg width="865" height="664" viewBox="0 0 865 664" fill="none" xmlns="http://www.w3.org/2000/svg">
<g clip-path="url(#clip0_361:186)">
<path d="M792.526 475.115L819.556 472.05C825.413 459.02 828.001 444.756 827.094 430.498C812.402 451.214 781.318 450.882 760.663 465.66C754.256 470.319 748.98 476.359 745.225 483.334C741.47 490.309 739.333 498.039 738.972 505.953L730.046 523.057C742.758 524.449 755.62 523.068 767.747 519.01C779.874 514.952 790.976 508.313 800.29 499.551C805.467 494.584 809.997 488.984 813.774 482.885C803.138 479.664 792.526 475.115 792.526 475.115Z" fill="#F2F2F2"/>
<path d="M771.946 436.189L794.772 421.392C794.203 407.116 790.158 393.196 782.988 380.839C779.076 405.933 751.107 419.499 739.211 441.937C735.554 448.964 733.525 456.724 733.275 464.641C733.025 472.559 734.56 480.431 737.765 487.675L737.405 506.964C749.403 502.541 760.3 495.569 769.344 486.528C778.388 477.488 785.365 466.594 789.793 454.598C792.211 447.844 793.769 440.811 794.429 433.668C783.473 435.529 771.946 436.189 771.946 436.189Z" fill="#F2F2F2"/>
<path d="M672.853 617.287C718.09 617.287 754.762 580.615 754.762 535.378C754.762 490.141 718.09 453.469 672.853 453.469C627.616 453.469 590.945 490.141 590.945 535.378C590.945 580.615 627.616 617.287 672.853 617.287Z" fill="white"/>
<path d="M672.853 618.287C656.456 618.287 640.426 613.425 626.792 604.315C613.157 595.204 602.531 582.256 596.256 567.106C589.98 551.957 588.339 535.287 591.538 519.204C594.737 503.121 602.633 488.348 614.228 476.753C625.823 465.158 640.596 457.262 656.678 454.063C672.761 450.864 689.431 452.506 704.581 458.781C719.73 465.056 732.679 475.682 741.789 489.316C750.899 502.951 755.762 518.98 755.762 535.378C755.737 557.359 746.994 578.433 731.451 593.976C715.908 609.519 694.834 618.262 672.853 618.287ZM672.853 454.47C656.851 454.47 641.208 459.215 627.903 468.105C614.597 476.996 604.227 489.632 598.103 504.416C591.98 519.2 590.377 535.468 593.499 551.163C596.621 566.858 604.327 581.274 615.642 592.59C626.958 603.905 641.374 611.611 657.069 614.733C672.764 617.854 689.032 616.252 703.816 610.128C718.6 604.004 731.236 593.634 740.127 580.329C749.017 567.023 753.762 551.38 753.762 535.378C753.738 513.927 745.206 493.362 730.038 478.194C714.87 463.026 694.304 454.494 672.853 454.47V454.47Z" fill="#3F3D56"/>
<path d="M666.721 568.113C666.546 568.113 666.372 568.108 666.197 568.099C664.654 568.025 663.146 567.617 661.775 566.905C660.405 566.193 659.205 565.193 658.257 563.974L644.568 546.376C643.704 545.265 643.067 543.995 642.693 542.638C642.32 541.281 642.217 539.863 642.392 538.467C642.566 537.07 643.014 535.721 643.71 534.498C644.406 533.274 645.336 532.2 646.447 531.336L646.939 530.952C648.05 530.087 649.321 529.45 650.678 529.076C652.035 528.703 653.453 528.6 654.85 528.775C656.247 528.949 657.596 529.397 658.82 530.094C660.044 530.79 661.118 531.72 661.982 532.832C662.673 533.72 663.548 534.448 664.547 534.966C665.546 535.485 666.644 535.781 667.768 535.836C668.892 535.891 670.015 535.702 671.059 535.283C672.103 534.864 673.045 534.225 673.819 533.408L701.612 504.067C703.568 502.006 706.262 500.806 709.103 500.729C711.943 500.651 714.698 501.704 716.764 503.655L717.22 504.09C718.242 505.057 719.063 506.217 719.636 507.502C720.21 508.788 720.525 510.173 720.563 511.58C720.601 512.987 720.361 514.388 719.858 515.702C719.354 517.016 718.597 518.219 717.628 519.24L674.498 564.766C673.497 565.823 672.291 566.666 670.954 567.241C669.617 567.817 668.177 568.114 666.721 568.113V568.113Z" fill="#2E4052"/>
<path d="M630.005 640.052L618.645 641.317L607.882 597.245L624.647 595.377L630.005 640.052Z" fill="#A0616A"/>
<path d="M704.845 441.914C704.492 441.563 704.11 441.221 703.729 440.896C700.798 438.464 697.734 436.196 694.553 434.101C690.954 431.703 686.904 429.255 682.323 426.728C680.106 425.503 677.762 424.253 675.293 422.977C674.056 422.338 672.784 421.694 671.476 421.045C671.42 421.013 671.363 420.983 671.304 420.956L670.925 420.764L643.357 443.52L641.399 445.059L646.477 451.321C646.477 451.321 646.035 456.3 646.046 456.302L641.004 468.882L640.949 468.907L622.989 477.105L604.481 485.554L594.54 490.095C592.235 491.145 590.162 492.643 588.441 494.502C586.721 496.361 585.387 498.544 584.518 500.923C583.604 503.395 583.191 506.023 583.304 508.656C583.416 511.288 584.051 513.872 585.172 516.256C585.395 516.742 585.644 517.229 585.909 517.698L590.04 543.67C592.507 559.204 597.305 574.277 604.271 588.38L610.58 612.691L611.539 612.21L625.807 605.063L629.577 603.179L630.289 586.844C630.37 584.982 630.381 583.11 630.315 581.242C630.218 578.184 629.925 575.135 629.44 572.114L621.259 521.173C622.71 520.582 624.143 519.987 625.555 519.39C632.103 516.65 638.301 513.881 644.151 511.082C663.178 501.988 678.677 492.548 691.341 482.323C694.9 479.455 698.238 476.519 701.355 473.516C702.501 472.419 703.616 471.31 704.701 470.192C704.959 469.933 705.211 469.678 705.458 469.416C707.688 467.076 709.296 464.214 710.134 461.092C710.972 457.97 711.014 454.688 710.255 451.545C709.406 447.885 707.529 444.544 704.845 441.914V441.914Z" fill="#2F2E41"/>
<path d="M629.08 632.336L616.783 633.696L614.854 633.907L616.109 641.21L601.819 655.17C601.112 655.859 600.644 656.757 600.483 657.731C600.322 658.706 600.478 659.706 600.926 660.586C601.374 661.466 602.093 662.179 602.975 662.622C603.858 663.065 604.859 663.214 605.833 663.047L626.127 659.571L628.385 651.749L630.989 658.738L638.633 657.43L632.07 632.009L629.08 632.336Z" fill="#2F2E41"/>
<path d="M640.783 379.472L651.312 368.306L636.459 335.808L634.25 324.393C633.963 322.911 633.292 321.529 632.303 320.387C631.315 319.244 630.044 318.381 628.618 317.884C627.192 317.387 625.66 317.272 624.176 317.553C622.691 317.833 621.307 318.498 620.16 319.481V319.481C618.46 320.937 617.393 322.997 617.184 325.226C616.974 327.454 617.639 329.677 619.037 331.425L627.238 341.676L640.783 379.472Z" fill="#A0616A"/>
<path d="M651.312 363.306L639.312 375.306L641.608 392.851C642.339 395.141 643.65 397.204 645.412 398.839C647.175 400.474 649.33 401.625 651.669 402.182V402.182C654.553 402.869 657.58 402.619 660.312 401.469C663.045 400.32 665.34 398.329 666.865 395.788L693.856 349.523C695.769 346.335 696.36 342.525 695.502 338.908C694.643 335.29 692.405 332.152 689.264 330.163V330.163C687.575 329.093 685.679 328.391 683.701 328.102C681.722 327.813 679.705 327.944 677.78 328.487C675.856 329.029 674.067 329.971 672.53 331.25C670.994 332.529 669.744 334.118 668.862 335.912L652.387 371.017L651.312 363.306Z" fill="#E6E6E6"/>
<path d="M639.223 540.382C638.603 541.013 637.981 541.637 637.352 542.263C636.101 543.512 634.832 544.75 633.559 545.973C632.919 546.586 632.272 547.2 631.63 547.805L631.635 547.827L631.593 547.845L631.58 547.856L630.512 548.407L627.856 544.494L626.63 542.693L624.899 540.14L621.726 535.47L605.023 510.884L620.003 503.151L621.182 505.447L621.19 505.445L621.773 506.583L632.728 527.809L634.965 532.149L635.035 532.28L636.379 534.871L637.539 537.117L638.832 539.627L639.223 540.382Z" fill="#A0616A"/>
<path d="M636.128 532.413L625.701 539.071L624.064 540.114L628.419 546.108L621.776 564.949C621.447 565.88 621.424 566.892 621.711 567.837C621.998 568.782 622.58 569.611 623.371 570.202C624.163 570.793 625.122 571.115 626.11 571.122C627.097 571.128 628.061 570.819 628.861 570.239L645.524 558.146L644.09 550.132L649.516 555.248L655.794 550.694L638.665 530.797L636.128 532.413Z" fill="#2F2E41"/>
<path d="M274.07 163.735L282.055 137.731C272.448 127.157 260.405 119.088 246.971 114.225C260.096 135.968 247.378 164.333 252.678 189.171C254.39 196.905 257.821 204.155 262.716 210.383C267.611 216.611 273.844 221.657 280.955 225.149L293.072 240.162C299.424 229.064 303.295 216.721 304.417 203.982C305.54 191.244 303.888 178.414 299.574 166.376C297.087 159.646 293.763 153.257 289.68 147.358C282.479 155.823 274.07 163.735 274.07 163.735Z" fill="#F2F2F2"/>
<path d="M230.165 167.058L225.714 140.221C212.4 135.042 198.022 133.191 183.83 134.83C205.274 148.437 206.541 179.497 222.362 199.364C227.343 205.523 233.647 210.482 240.806 213.873C247.965 217.264 255.795 219.001 263.716 218.955L281.257 226.989C281.993 214.222 279.953 201.448 275.276 189.546C270.6 177.644 263.399 166.898 254.169 158.047C248.943 153.133 243.118 148.896 236.832 145.438C234.163 156.226 230.165 167.058 230.165 167.058Z" fill="#F2F2F2"/>
<path d="M382.987 88.2431L391.188 77.9919C392.586 76.244 393.251 74.0213 393.041 71.7927C392.832 69.5642 391.765 67.5042 390.065 66.0475C388.918 65.0645 387.533 64.3997 386.049 64.1195C384.565 63.8393 383.033 63.9536 381.607 64.4509C380.18 64.9482 378.91 65.8111 377.921 66.9534C376.933 68.0957 376.262 69.4774 375.975 70.9604L373.766 82.375L365.383 105.009L375.442 110.039L382.987 88.2431Z" fill="#FFB8B8"/>
<path d="M357.838 117.584L341.363 82.4794C340.481 80.6849 339.231 79.0962 337.694 77.8168C336.158 76.5374 334.369 75.5959 332.444 75.0535C330.52 74.5111 328.503 74.3801 326.524 74.6689C324.546 74.9577 322.65 75.6598 320.961 76.7297V76.7297C317.82 78.7189 315.581 81.8574 314.723 85.4748C313.865 89.0922 314.456 92.9018 316.368 96.0897L343.36 142.354C344.885 144.896 347.18 146.886 349.912 148.036C352.645 149.186 355.672 149.436 358.556 148.749V148.749C360.895 148.192 363.05 147.041 364.813 145.406C366.575 143.771 367.886 141.708 368.616 139.418L378.795 107.524L365.383 100.818L357.838 117.584Z" fill="#2F2E41"/>
<path d="M388.924 106.286L378.131 105.381C376.437 105.237 374.869 104.427 373.772 103.128C372.674 101.83 372.137 100.149 372.277 98.4544L376.429 48.9327C376.573 47.2385 377.383 45.6707 378.682 44.5731C379.98 43.4755 381.661 42.9378 383.356 43.078L394.149 43.983C395.843 44.127 397.411 44.937 398.508 46.2356C399.606 47.5341 400.144 49.215 400.003 50.9094L395.851 100.431C395.707 102.125 394.897 103.693 393.598 104.791C392.3 105.888 390.619 106.426 388.924 106.286Z" fill="#3F3D56"/>
<path d="M381.881 45.4979C380.968 45.4223 380.062 45.7121 379.362 46.3036C378.663 46.8951 378.226 47.7399 378.148 48.6529L373.996 98.1746C373.92 99.0877 374.21 99.9935 374.802 100.693C375.393 101.393 376.238 101.83 377.151 101.907L387.944 102.812C388.857 102.888 389.763 102.598 390.463 102.006C391.162 101.415 391.599 100.57 391.676 99.6571L395.829 50.1354C395.904 49.2223 395.615 48.3165 395.023 47.6168C394.432 46.917 393.587 46.4805 392.674 46.4029L381.881 45.4979Z" fill="#2E4052"/>
<path d="M359.8 150.859H314.896V195.762H359.8V150.859Z" fill="#FFB8B8"/>
<path d="M368.533 147.019C369.861 147.019 370.938 145.942 370.938 144.613C370.938 143.285 369.861 142.208 368.533 142.208C367.204 142.208 366.127 143.285 366.127 144.613C366.127 145.942 367.204 147.019 368.533 147.019Z" fill="#2F2E41"/>
<path d="M408.613 340.53L420.589 340.529L426.287 294.335L408.611 294.336L408.613 340.53Z" fill="#FFB6B6"/>
<path d="M405.643 334.622L424.575 333.492V341.603L442.574 354.034C443.463 354.648 444.133 355.53 444.485 356.551C444.838 357.573 444.854 358.68 444.533 359.711C444.211 360.743 443.568 361.644 442.698 362.285C441.828 362.925 440.776 363.27 439.695 363.27H417.156L413.271 355.247L411.754 363.27H403.256L405.643 334.622Z" fill="#2F2E41"/>
<path d="M319.732 373.506L330.001 379.669L358.659 342.994L343.504 333.898L319.732 373.506Z" fill="#FFB6B6"/>
<path d="M320.226 366.912L337.04 375.686L332.865 382.641L341.9 402.562C342.347 403.546 342.467 404.647 342.243 405.704C342.02 406.761 341.464 407.719 340.658 408.438C339.851 409.157 338.836 409.599 337.76 409.7C336.685 409.801 335.605 409.556 334.678 409L315.353 397.4L316.151 388.521L310.722 394.62L303.435 390.246L320.226 366.912Z" fill="#2F2E41"/>
<path d="M78.9192 369.486C78.801 369.486 78.6827 369.483 78.5634 369.479C77.1713 369.428 75.812 369.042 74.6011 368.353C73.3903 367.665 72.3637 366.694 71.6087 365.523C65.9538 357.071 59.0141 349.554 51.0403 343.243C46.2132 339.385 41.169 335.797 36.2912 332.328C23.707 323.38 11.856 314.952 5.27739 303.308C-9.06584 277.917 7.82543 242.55 31.9562 226.69C59.0222 208.901 94.6232 206.111 129.063 205.745C132.642 205.707 136.224 205.689 139.807 205.689C201.861 205.712 263.784 211.375 324.812 222.605C345.106 226.349 366.348 230.936 383.418 242.066C400.387 253.131 410.701 270.556 409.695 286.459C408.225 309.675 383.615 327.022 361.205 331.558C339.845 335.877 317.655 332.958 294.163 329.867C288.976 329.185 283.614 328.479 278.311 327.866C220.681 321.205 112.419 341.737 107.839 342.614L103.294 343.484L85.6631 366.173C84.87 367.207 83.8488 368.044 82.679 368.619C81.5092 369.194 80.2225 369.49 78.9192 369.486V369.486Z" fill="#2E4052"/>
<path d="M335.553 256.23H91.9698C90.5642 256.23 89.2161 255.671 88.2222 254.678C87.2283 253.684 86.6699 252.336 86.6699 250.93C86.6699 249.524 87.2283 248.176 88.2222 247.182C89.2161 246.188 90.5642 245.63 91.9698 245.63H335.553C336.959 245.63 338.307 246.188 339.301 247.182C340.295 248.176 340.853 249.524 340.853 250.93C340.853 252.336 340.295 253.684 339.301 254.678C338.307 255.671 336.959 256.23 335.553 256.23V256.23Z" fill="white"/>
<path d="M335.553 288.761H91.9698C91.2734 288.762 90.5836 288.627 89.9398 288.361C89.2959 288.096 88.7107 287.706 88.2175 287.214C87.7244 286.723 87.333 286.139 87.0657 285.496C86.7984 284.853 86.6604 284.163 86.6597 283.467C86.6589 282.77 86.7955 282.081 87.0614 281.437C87.3274 280.793 87.7176 280.209 88.2097 279.716C88.7018 279.223 89.2863 278.832 89.9295 278.566C90.5728 278.299 91.2623 278.161 91.9587 278.161H335.553C336.958 278.163 338.304 278.723 339.296 279.716C340.289 280.71 340.846 282.057 340.846 283.461C340.846 284.866 340.289 286.213 339.296 287.206C338.304 288.2 336.958 288.759 335.553 288.761Z" fill="white"/>
<path d="M120.356 321.291H91.9696C90.5652 321.289 89.2191 320.73 88.2267 319.736C87.2344 318.743 86.677 317.396 86.677 315.991C86.677 314.587 87.2344 313.24 88.2267 312.246C89.2191 311.253 90.5652 310.694 91.9696 310.692H120.356C121.76 310.694 123.106 311.253 124.098 312.246C125.091 313.24 125.648 314.587 125.648 315.991C125.648 317.396 125.091 318.743 124.098 319.736C123.106 320.73 121.76 321.289 120.356 321.291V321.291Z" fill="white"/>
<path d="M361.389 182.907L313.381 177.178L314.762 186.28C314.762 186.28 282.253 212.476 304.508 241.378L315.251 251.856L314.262 256.78H321.162L321.902 262.721L351.583 287.289L353.287 292.316H358.174L355.786 298.031L333.75 349.28L352.006 357.792L385.629 293.336L377.017 273.909L346.034 234.696L394.021 253.65L394.839 257.811L399.25 256.976L398.399 263.099L407.762 311.28L427.597 308.648L425.557 248.697C425.404 245.42 424.386 242.242 422.608 239.485C420.829 236.729 418.352 234.492 415.429 233.003C405.262 227.78 367.704 213.27 367.704 213.27L361.389 182.907Z" fill="#2F2E41"/>
<path d="M342.159 77.8913L333.121 66.2736L320.229 65.7146L318.942 76.6413L312.553 79.587C306.175 103.82 305.19 129.158 309.668 153.814V153.814C310.524 154.62 311.149 155.64 311.48 156.768C311.81 157.897 311.834 159.093 311.548 160.234L311.133 161.885L311.172 161.945C312.531 164.09 312.992 166.684 312.456 169.166V169.166L300.777 189.918C325.578 200.026 343.759 181.175 360.602 156.472L371.026 120.389L342.159 77.8913Z" fill="#3F3D56"/>
<path d="M369.331 144.693L371.765 120.349L339.45 72.5129L338.121 73.4099L370.111 120.767L367.735 144.533L369.331 144.693Z" fill="#2F2E41"/>
<path d="M333.752 65.3198C346.917 65.3198 357.59 54.6473 357.59 41.4821C357.59 28.3168 346.917 17.6443 333.752 17.6443C320.587 17.6443 309.914 28.3168 309.914 41.4821C309.914 54.6473 320.587 65.3198 333.752 65.3198Z" fill="#FFB8B8"/>
<path d="M336.817 12.4095L333.826 12.5044L332.81 12.5366L321.427 12.8978C311.337 13.218 303.449 22.6796 303.809 34.031C296.438 41.9174 299.027 51.4224 305.395 61.5414C316.34 62.5517 327.094 65.0655 337.354 69.0117L338.596 62.8315L341.686 70.8208C344.244 71.9619 346.786 73.2177 349.309 74.5885C345.986 61.0949 344.366 47.5789 346.017 36.9872L351.23 36.8219L351.049 31.1171L353 36.7657L362.451 36.4658C362.347 33.2032 361.602 29.9929 360.258 27.0182C358.914 24.0435 356.997 21.3627 354.616 19.1288C352.236 16.895 349.439 15.1518 346.385 13.9989C343.331 12.846 340.08 12.3059 336.817 12.4095V12.4095Z" fill="#2F2E41"/>
<path d="M316.235 22.4516C322.435 22.4516 327.461 17.4257 327.461 11.2258C327.461 5.02597 322.435 0 316.235 0C310.035 0 305.01 5.02597 305.01 11.2258C305.01 17.4257 310.035 22.4516 316.235 22.4516Z" fill="#2F2E41"/>
<path d="M389.987 100.243L398.188 89.9919C399.586 88.244 400.251 86.0213 400.041 83.7927C399.832 81.5642 398.765 79.5042 397.065 78.0475V78.0475C395.918 77.0645 394.533 76.3997 393.049 76.1195C391.565 75.8393 390.033 75.9536 388.607 76.4509C387.18 76.9482 385.91 77.8111 384.921 78.9534C383.933 80.0957 383.262 81.4774 382.975 82.9604L380.766 94.375L372.383 117.009L382.442 122.039L389.987 100.243Z" fill="#FFB8B8"/>
<path d="M364.838 129.584L348.363 94.4794C347.481 92.6849 346.231 91.0962 344.694 89.8168C343.158 88.5374 341.369 87.5959 339.444 87.0535C337.52 86.5111 335.503 86.3801 333.524 86.6689C331.546 86.9577 329.65 87.6598 327.961 88.7297V88.7297C324.82 90.7189 322.581 93.8574 321.723 97.4748C320.865 101.092 321.456 104.902 323.368 108.09L350.36 154.354C351.885 156.896 354.18 158.886 356.912 160.036C359.645 161.186 362.672 161.436 365.556 160.749V160.749C367.895 160.192 370.05 159.041 371.813 157.406C373.575 155.771 374.886 153.708 375.616 151.418L385.795 119.524L372.383 112.818L364.838 129.584Z" fill="#2F2E41"/>
<path d="M711.317 462.232C710.279 463.898 709.219 465.557 708.151 467.2C706.167 470.26 704.129 473.274 702.039 476.243C702.039 476.251 702.031 476.251 702.024 476.259C700.804 477.388 699.457 478.372 698.01 479.19C697.949 479.235 697.881 479.265 697.82 479.303C696.754 479.893 695.62 480.348 694.442 480.659C694.018 480.765 693.586 480.871 693.162 480.977C691.632 481.341 690.117 481.651 688.61 481.924C685.929 482.401 683.278 482.742 680.642 482.954C680.43 482.977 680.218 482.992 680.006 483.007C669.168 483.802 658.617 482.522 647.605 480.424C642.166 479.394 636.615 478.16 630.866 476.88C628.988 476.455 627.102 476.039 625.193 475.622C625.049 475.592 624.898 475.554 624.746 475.524C622.02 474.926 619.247 474.335 616.407 473.752C612.832 473.017 614.665 472.974 610.832 472.3C610.832 472.3 619.675 481.279 621.144 485.172C622.78 489.959 624.075 493.746 621.341 501.631L629.832 518.3L600.312 523.306C584.042 491.425 571.04 470.432 576.848 458.068C576.871 457.492 576.916 456.909 576.992 456.333C577.301 453.716 578.127 451.187 579.424 448.893C580.72 446.599 582.461 444.587 584.543 442.973C586.539 441.413 588.825 440.266 591.268 439.597C593.711 438.929 596.263 438.753 598.775 439.08L604.569 439.83L649.506 437.646L651.27 430.451L651.596 430.33L661.95 426.535L697.76 413.41L697.85 413.379L700.206 412.516L700.486 412.97C700.57 413.107 700.653 413.243 700.729 413.379C703.057 417.553 704.952 421.954 706.386 426.513C708.798 433.96 710.783 441.539 712.332 449.212C712.4 449.545 712.461 449.848 712.514 450.121L712.536 450.204C712.559 450.333 712.574 450.416 712.582 450.439C713.407 453.877 712.832 458.073 711.317 462.232Z" fill="#2F2E41"/>
<path d="M703.762 322.28L703.503 307.926L680.762 305.28L678.377 317.401L654.476 339.862C637.483 360.636 649.832 374.963 650.571 377.093L652.672 403.29L653.994 412.391L648.832 437.3L713.985 451.276C716.07 434.055 713.748 418.054 700.146 405.174L707.019 383.789C710.503 378.205 712.688 371.909 713.411 365.368L713.658 363.132C719.732 344.208 716.134 337.837 703.762 322.28Z" fill="#E6E6E6"/>
<path d="M735.668 277.418C735.683 277.789 735.69 278.16 735.69 278.524C735.684 282.535 734.728 286.488 732.902 290.06C731.075 293.631 728.43 296.72 725.181 299.073C721.932 301.427 718.173 302.978 714.21 303.6C710.247 304.223 706.194 303.899 702.38 302.655L697.707 301.132C697.669 301.117 697.623 301.11 697.586 301.095L689.883 298.58C689.858 298.255 689.863 297.927 689.898 297.603C678.408 292.695 694.291 276.57 698.237 264.459C698.85 262.573 677.757 263.982 678.757 262.369C678.537 262.255 678.317 262.141 678.113 262.028C681.676 256.405 686.943 252.068 693.146 249.651C699.348 247.234 706.161 246.862 712.59 248.592C712.756 248.629 712.93 248.682 713.097 248.728C728.063 249.099 735.925 259.528 735.925 273.071C735.924 274.524 735.838 275.975 735.668 277.418V277.418Z" fill="#2F2E41"/>
<path d="M722.701 282.75C720.693 288.9 716.325 294.001 710.557 296.931C704.789 299.861 698.094 300.381 691.943 298.376C691.246 298.148 690.564 297.891 689.898 297.603C684.3 295.204 679.803 290.797 677.29 285.25C674.776 279.702 674.43 273.415 676.318 267.625C676.917 265.782 677.735 264.017 678.756 262.369C681.892 257.291 686.781 253.539 692.497 251.822C698.213 250.106 704.36 250.545 709.774 253.056C715.188 255.568 719.494 259.977 721.876 265.449C724.259 270.921 724.552 277.077 722.701 282.75V282.75Z" fill="#A0616A"/>
<path d="M697.702 301.13C697.661 301.12 697.621 301.107 697.582 301.09L689.882 298.58C689.862 298.25 675.722 307.61 675.762 307.28C675.982 304.75 691.912 292.41 694.292 289.54C695.831 287.707 696.901 285.528 697.411 283.189C697.92 280.851 697.853 278.423 697.215 276.117C696.577 273.81 695.388 271.693 693.75 269.948C692.112 268.203 690.074 266.882 687.812 266.1C687.744 266.083 687.677 266.06 687.612 266.03C686.122 265.51 684.692 264.98 683.352 264.45C682.692 261.7 682.352 262.61 680.762 260.28C681.052 262.4 678.362 264 678.322 266.14C677.772 265.89 677.252 265.63 676.752 265.37C676.532 265.25 676.322 265.14 676.112 265.03C674.57 264.313 673.222 263.237 672.182 261.89C676.032 250.06 690.762 240.59 702.592 244.46L707.062 245.91C712.7 247.74 717.384 251.727 720.092 257C723.353 259.5 725.955 262.757 727.672 266.49C737.452 286.14 718.562 307.83 697.702 301.13Z" fill="#2F2E41"/>
<path d="M730.047 268.246C735.904 268.246 740.651 263.499 740.651 257.643C740.651 251.786 735.904 247.039 730.047 247.039C724.191 247.039 719.444 251.786 719.444 257.643C719.444 263.499 724.191 268.246 730.047 268.246Z" fill="#2F2E41"/>
<path d="M864.762 279.27C862.514 289.486 858.016 299.071 851.594 307.328C845.172 315.585 836.99 322.306 827.642 327C826.452 327.59 825.242 328.14 824.022 328.65C824.132 323.705 822.711 318.846 819.952 314.74C820.4 318.069 820.454 321.439 820.112 324.78C819.925 326.696 819.608 328.597 819.162 330.47C811.317 333.057 803.078 334.246 794.822 333.98C794.351 330.311 793.025 326.804 790.952 323.74C791.4 327.069 791.454 330.439 791.112 333.78C782.814 333.107 774.706 330.935 767.182 327.37C763.272 325.51 759.432 323.18 756.912 319.66C753.562 314.97 753.002 308.78 753.822 303.08C754.642 297.37 756.692 291.92 758.122 286.34C759.552 280.76 760.362 274.79 758.682 269.28C757.012 263.76 752.322 258.85 746.572 258.42C743.952 258.22 741.322 258.94 738.702 258.7C736.082 258.45 733.242 256.7 733.182 254.07L735.692 249.99C736.752 242.85 740.392 235.77 746.632 232.14C752.862 228.5 761.822 229.28 766.272 234.96C770.022 239.74 769.882 246.38 771.112 252.33C773.972 266.15 785.022 277.27 797.862 283.13C810.712 288.98 825.172 290.21 839.292 289.97C844.132 289.88 849.052 289.62 853.652 288.09C858.262 286.55 862.562 283.59 864.762 279.27Z" fill="#2F2E41"/>
<path d="M624.28 342.998L620.127 293.476C619.987 291.782 620.525 290.101 621.622 288.802C622.72 287.504 624.288 286.694 625.982 286.55L636.775 285.645C638.469 285.505 640.15 286.042 641.449 287.14C642.747 288.238 643.557 289.805 643.701 291.5L647.854 341.021C647.994 342.716 647.456 344.397 646.359 345.695C645.261 346.994 643.693 347.804 641.999 347.948L631.206 348.853C629.512 348.993 627.831 348.455 626.532 347.358C625.234 346.26 624.424 344.692 624.28 342.998V342.998Z" fill="#3F3D56"/>
<path d="M627.457 288.97C626.544 289.047 625.699 289.484 625.107 290.184C624.516 290.883 624.226 291.789 624.302 292.702L628.454 342.224C628.532 343.137 628.968 343.982 629.668 344.573C630.368 345.165 631.273 345.455 632.187 345.379L642.98 344.474C643.893 344.396 644.737 343.96 645.329 343.26C645.92 342.56 646.21 341.655 646.135 340.742L641.982 291.22C641.905 290.307 641.468 289.462 640.768 288.87C640.068 288.279 639.163 287.989 638.25 288.065L627.457 288.97Z" fill="#2E4052"/>
<path d="M645.654 359.99L656.162 355.98L650.059 332.627L648.99 321.05C648.851 319.546 648.32 318.105 647.449 316.87C646.579 315.636 645.4 314.652 644.03 314.016C642.66 313.38 641.147 313.114 639.642 313.246C638.137 313.378 636.693 313.903 635.455 314.768V314.768C633.62 316.049 632.354 317.993 631.925 320.19C631.496 322.387 631.938 324.665 633.156 326.542L640.303 337.555L645.654 359.99Z" fill="#A0616A"/>
<path d="M656.577 351.809L642.566 357.156L649.54 389.9C650.041 392.251 651.141 394.433 652.733 396.235C654.325 398.036 656.356 399.395 658.628 400.181V400.181C661.43 401.149 664.467 401.2 667.3 400.326C670.133 399.452 672.613 397.699 674.383 395.321L705.818 351.953C708.037 348.97 709.002 345.237 708.505 341.553C708.009 337.868 706.092 334.524 703.164 332.234V332.234C701.589 331.002 699.772 330.116 697.831 329.632C695.891 329.149 693.871 329.08 691.902 329.429C689.933 329.779 688.06 330.539 686.404 331.66C684.749 332.781 683.348 334.238 682.293 335.937L662.426 369.239L656.577 351.809Z" fill="#E6E6E6"/>
<path opacity="0.2" d="M645.182 369.436L652.263 398.195L653.733 399.983C654.896 401.4 656.383 402.516 658.068 403.238C659.753 403.96 661.587 404.267 663.415 404.133C665.243 404 667.012 403.428 668.574 402.468C670.136 401.508 671.444 400.187 672.389 398.616L694.832 361.3L674.597 389.299C673.463 390.869 671.948 392.126 670.195 392.951C668.443 393.776 666.509 394.143 664.576 394.018C662.643 393.892 660.773 393.278 659.142 392.233C657.511 391.188 656.172 389.746 655.25 388.042L645.182 369.436Z" fill="black"/>
</g>
<defs>
<clipPath id="clip0_361:186">
<rect width="864.762" height="663.114" fill="white"/>
</clipPath>
</defs>
</svg>
