<svg width="104" height="105" viewBox="0 0 104 105" fill="none" xmlns="http://www.w3.org/2000/svg">
<path d="M80.3512 10.4579C80.0701 10.1368 79.7207 9.90453 79.3435 9.76976L56.62 1.6894C47.5332 -1.54217 41.6213 4.09515 40.0288 5.90449C39.0996 6.95683 38.3881 8.06652 38.0235 9.03283L27.9011 35.9979C27.3213 37.5406 27.5188 39.5965 28.4278 41.6467C29.7291 44.5744 32.0736 46.6848 34.8764 47.4446C38.0134 48.2963 41.2668 47.1407 43.8139 44.2589C44.4798 43.5048 45.0469 42.6733 45.3811 41.9679L48.7839 34.8194C49.3435 33.6352 50.1562 32.408 51.012 31.4388C53.9312 28.1298 55.3187 29.6438 55.9086 30.2861C61.0002 35.8517 87.6936 66.2118 87.6936 66.2118C88.643 67.2871 88.4455 69.3258 87.2581 70.6678C86.0732 72.0069 84.2705 72.2363 83.3236 71.1667L75.8242 62.6763C74.857 61.5781 73.2974 61.5781 72.3302 62.6763C71.3631 63.7631 71.3631 65.538 72.3302 66.6305L79.8296 75.1266C80.7765 76.1962 80.579 78.2349 79.3941 79.574C78.2092 80.9188 76.404 81.1424 75.4622 80.0729L67.9602 71.5825C66.9931 70.4871 65.4284 70.4871 64.4663 71.5825C63.4991 72.6692 63.4991 74.4442 64.4663 75.5395L71.9656 84.0328C72.9126 85.1052 72.7075 87.1439 71.5251 88.4859C70.3427 89.825 68.5426 90.0543 67.5931 88.9791L60.0938 80.4887C59.1316 79.3962 57.5644 79.3962 56.5998 80.4887C55.6377 81.5811 55.6377 83.3561 56.5998 84.4428L64.0992 92.9389C65.0486 94.0142 64.8461 96.053 63.6637 97.3949C62.4737 98.7369 60.6735 98.9634 59.7292 97.891L50.5993 87.5425C51.9032 85.3231 51.5487 82.103 49.6144 79.9037C47.4471 77.4521 44.1126 77.2255 42.1834 79.4162C44.1126 77.2284 43.9228 73.4578 41.7504 71.0004C39.5781 68.5459 36.2512 68.3194 34.3219 70.5043C36.2512 68.3194 36.0563 64.5516 33.8814 62.0971C31.7141 59.6369 28.3873 59.4132 26.4529 61.5982C28.3873 59.4132 28.1872 55.6454 26.0174 53.1823C23.9869 50.8827 20.9613 50.5701 18.994 52.3221L4.21051 35.5793C3.24587 34.484 1.67865 34.484 0.714012 35.5793C-0.248095 36.6689 -0.248095 38.4438 0.714012 39.5392L15.4596 56.2361L11.087 61.1881C9.15777 63.3702 9.35272 67.138 11.5276 69.6011C13.6949 72.0556 17.0217 72.2821 18.9535 70.0943C17.0217 72.2821 17.2192 76.0471 19.3916 78.5073C21.5588 80.9589 24.8882 81.1912 26.82 79.0033C24.8882 81.1912 25.0832 84.9561 27.2555 87.4135C29.4279 89.8737 32.7547 90.0974 34.684 87.9124C32.7547 90.0945 32.9497 93.8594 35.122 96.3225C37.2918 98.777 40.6161 99.0035 42.5505 96.8157L47.1686 91.5884L56.2352 101.854C59.1291 105.131 64.0232 104.902 67.1576 101.358C68.6844 99.6286 69.4996 97.4207 69.6135 95.2358C71.5428 95.1067 73.4949 94.1805 75.0191 92.4486C76.5483 90.7196 77.3686 88.5117 77.4851 86.3267C79.4118 86.1977 81.3563 85.2744 82.8906 83.5424C84.4173 81.8105 85.2351 79.6055 85.3465 77.4177C87.2783 77.2915 89.2279 76.3682 90.7571 74.6305C93.8865 71.0864 94.0789 65.5351 91.1926 62.2634L87.3695 57.9308L103.067 40.1557C104.032 39.0661 104.032 37.2911 103.067 36.1987L80.3512 10.4579Z" fill="#F8F8F8"/>
</svg>
