<svg width="499" height="460" viewBox="0 0 499 460" fill="none" xmlns="http://www.w3.org/2000/svg">
<path d="M499 191.039C499 336.168 278.773 434 138.953 434C-0.866608 434 0.000129982 357.174 0.000129982 212.046C0.000129982 66.9173 82.5867 0 222.407 0C362.226 0 499 45.9109 499 191.039Z" fill="#FFC757"/>
<path d="M228.206 227.399C228.449 227.689 228.672 228.001 228.872 228.332L260.084 227.445L263.725 219.719L274.484 224.576L269.183 238.981C268.755 240.144 268.013 241.115 267.069 241.748C266.125 242.38 265.03 242.64 263.948 242.488L228.685 237.542C227.853 238.765 226.721 239.665 225.438 240.122C224.155 240.579 222.782 240.571 221.503 240.1C220.224 239.63 219.098 238.718 218.276 237.486C217.454 236.255 216.974 234.762 216.901 233.206C216.828 231.65 217.164 230.105 217.865 228.776C218.566 227.448 219.599 226.398 220.826 225.768C222.054 225.138 223.417 224.956 224.735 225.248C226.054 225.539 227.264 226.289 228.206 227.399V227.399Z" fill="#FFB7B7"/>
<path d="M329.951 447.501H319.689L314.806 401.536L329.952 401.537L329.951 447.501Z" fill="#FFB7B7"/>
<path d="M332.568 459.053L299.477 459.052V458.566C299.477 454.599 300.834 450.795 303.25 447.991C305.665 445.186 308.941 443.61 312.357 443.61H312.358L332.568 443.611L332.568 459.053Z" fill="#2F2E41"/>
<path d="M236.763 447.237L227.326 442.555L238.386 398.059L252.314 404.968L236.763 447.237Z" fill="#FFB7B7"/>
<path d="M235.263 459.053L204.833 443.958L204.997 443.511C206.339 439.863 208.874 436.984 212.044 435.507C215.214 434.029 218.759 434.075 221.901 435.632L221.901 435.633L240.487 444.853L235.263 459.053Z" fill="#2F2E41"/>
<path d="M280.068 237.357L279.325 251.321L301.018 254.016L323.716 256.837L317.035 235.633L280.068 237.357Z" fill="#FFB7B7"/>
<path d="M278.642 251.5L270.215 183.283L284.822 177.724L289.112 170.893L309.989 172.327L313.054 180.299L324.186 186.407L322.475 223.3L323.723 254.162L278.642 251.5Z" fill="#2F2E41"/>
<path d="M273.339 233.219L258.481 226.317L258.545 226.01C258.609 225.7 264.932 195.017 265.772 190.086C266.646 184.949 269.842 183.528 269.977 183.471L270.077 183.428L275.956 185.506L278.539 209.066L273.339 233.219Z" fill="#2F2E41"/>
<path d="M244.407 439.158L224.63 434.448L256.239 333.167L267.058 298.621C267.058 298.621 273.919 270.923 277.019 260.204L278.89 245.821L323.177 251.514C323.177 251.514 335.547 272.607 331.789 306.988L333.488 436.214L313.711 437.392L297.146 307.061L268.072 378.508C268.072 378.508 258.908 408.996 252.352 415.605L244.407 439.158Z" fill="#2F2E41"/>
<path d="M305.417 256.31C305.766 256.301 306.114 256.323 306.459 256.377L327.12 229.198L324.717 220.844L335.099 214.985L340.592 229.293C341.035 230.448 341.144 231.74 340.902 232.974C340.659 234.208 340.079 235.317 339.247 236.135L312.148 262.798C312.355 264.338 312.153 265.914 311.569 267.317C310.985 268.721 310.048 269.884 308.881 270.653C307.714 271.423 306.373 271.761 305.036 271.624C303.699 271.486 302.43 270.88 301.398 269.884C300.365 268.889 299.618 267.552 299.256 266.052C298.893 264.551 298.933 262.958 299.369 261.485C299.806 260.011 300.618 258.727 301.699 257.803C302.779 256.878 304.076 256.358 305.417 256.31V256.31Z" fill="#FFB7B7"/>
<path d="M325.471 231.843L316.852 208.302L320.214 191.904L323.835 186.591C324.101 186.459 324.387 186.393 324.675 186.396C324.964 186.399 325.248 186.472 325.512 186.609C326.847 187.234 327.985 189.147 328.893 192.296L336.97 219.011L325.471 231.843Z" fill="#2F2E41"/>
<path d="M280.755 162.17V144.422C280.755 138.115 282.913 132.066 286.754 127.606C290.595 123.146 295.804 120.64 301.236 120.64C306.668 120.64 311.877 123.146 315.718 127.606C319.559 132.066 321.716 138.115 321.716 144.422V162.17C321.716 163.017 321.425 163.829 320.91 164.427C320.394 165.026 319.695 165.363 318.965 165.364H283.506C282.777 165.363 282.078 165.026 281.562 164.427C281.046 163.829 280.756 163.017 280.755 162.17V162.17Z" fill="#2F2E41"/>
<path d="M297.027 164.951C305.32 164.951 312.043 157.145 312.043 147.515C312.043 137.886 305.32 130.079 297.027 130.079C288.734 130.079 282.012 137.886 282.012 147.515C282.012 157.145 288.734 164.951 297.027 164.951Z" fill="#FFB7B7"/>
<path d="M275.91 145.842C275.915 140.854 277.623 136.073 280.661 132.546C283.698 129.019 287.816 127.035 292.111 127.03H295.168C299.463 127.035 303.581 129.019 306.619 132.546C309.656 136.073 311.364 140.854 311.369 145.842V146.197H304.909L302.706 139.033L302.265 146.197H298.926L297.815 142.582L297.592 146.197H275.91L275.91 145.842Z" fill="#2F2E41"/>
<path d="M295.55 167.36C295.246 166.883 295.065 166.316 295.027 165.725C294.989 165.134 295.095 164.542 295.334 164.018C298.574 156.864 303.109 143.644 297.089 135.491L296.656 134.906H314.133V165.374L298.257 168.627C298.096 168.66 297.933 168.677 297.77 168.677C297.336 168.677 296.909 168.558 296.523 168.329C296.137 168.1 295.804 167.768 295.55 167.36V167.36Z" fill="#2F2E41"/>
<path d="M91.6748 437.461L100.949 441.31L118.148 401.602L104.459 395.922L91.6748 437.461Z" fill="#9F616A"/>
<path d="M86.0957 446.919L90.3911 432.964L108.656 440.543C111.741 441.828 114.261 444.481 115.663 447.921C117.066 451.36 117.236 455.305 116.136 458.89L116.001 459.33L86.0957 446.919Z" fill="#2F2E41"/>
<path d="M151.984 448.114L161.833 448.113L166.519 404L151.983 404.001L151.984 448.114Z" fill="#9F616A"/>
<path d="M149.472 444.38L168.869 444.379H168.869C170.493 444.379 172.1 444.75 173.6 445.471C175.099 446.192 176.462 447.25 177.61 448.583C178.758 449.915 179.668 451.498 180.289 453.239C180.911 454.981 181.23 456.847 181.23 458.732V459.198L149.473 459.2L149.472 444.38Z" fill="#2F2E41"/>
<path d="M129.538 166.288L133.821 156.459C133.821 156.459 149.778 161.102 151.229 171.841L129.538 166.288Z" fill="#F1F1F1"/>
<path d="M111.864 278.664L123.513 354.145L92.583 417.66L111.061 426.056L142.392 364.487L146.409 347.696L148.819 435.384L165.483 434.797L173.123 352.917L160.869 276.798L111.864 278.664Z" fill="#2F2E41"/>
<path d="M133.976 296.508C116.864 296.508 105.999 292.707 105.755 292.647L105.361 292.55L114.275 244.563L114.676 200.299C114.676 181.542 125.308 167.713 126.783 166.437C127.031 165.298 127.491 164.236 128.129 163.325C128.768 162.414 129.57 161.676 130.479 161.162C134.025 159.294 138.359 161.536 138.541 161.632L151.549 167.295L151.61 167.504C151.766 168.041 168.899 233.349 168.899 233.349C168.899 233.349 167.862 290.412 167.5 292.281C167.5 292.281 143.485 296.508 133.976 296.508Z" fill="#3F3D56"/>
<path d="M147.126 153.365C156.835 153.365 164.706 144.225 164.706 132.951C164.706 121.677 156.835 112.538 147.126 112.538C137.417 112.538 129.546 121.677 129.546 132.951C129.546 144.225 137.417 153.365 147.126 153.365Z" fill="#9F616A"/>
<path opacity="0.2" d="M127.524 203.919L158.281 253.748L162.822 230.479L127.524 203.919Z" fill="black"/>
<path d="M223.951 237.824C223.086 238.618 222.081 239.183 221.008 239.478C219.935 239.773 218.819 239.791 217.739 239.531C216.659 239.271 215.641 238.739 214.757 237.973C213.874 237.207 213.145 236.225 212.624 235.097L186.151 240.017L191.886 225.274L216.146 222.862C217.836 221.97 219.75 221.829 221.524 222.466C223.298 223.103 224.809 224.473 225.771 226.317C226.733 228.161 227.079 230.351 226.744 232.472C226.408 234.593 225.415 236.497 223.951 237.824H223.951Z" fill="#9F616A"/>
<path d="M193.249 224.435L202.761 223.352L205.397 238.759L193.428 239.005L193.249 224.435Z" fill="#F1F1F1"/>
<path d="M201.047 244.128L154.461 239.311L130.939 195.872L130.866 195.488C130.199 191.939 130.666 188.23 132.181 185.052C133.696 181.875 136.156 179.446 139.1 178.22C142.045 176.993 145.273 177.053 148.182 178.388C151.091 179.723 153.482 182.242 154.909 185.475L168.717 216.75L196.585 221.642L201.047 244.128Z" fill="#3F3D56"/>
<path d="M132.151 150.675L146.743 151.283C147.632 151.32 150.046 140.174 150.362 137.862C150.612 136.357 151.325 135.008 152.368 134.069C153.412 133.129 154.714 132.663 156.031 132.757C157.124 132.877 159.878 130.507 162.72 127.701C168.116 122.374 167.835 112.37 161.908 107.869C161.746 107.746 161.587 107.633 161.431 107.532C157.692 105.101 153.317 104.285 149.033 104.223C145.148 104.167 141.154 104.734 137.732 106.869C131.597 110.697 128.332 119.061 128.045 127.141C127.758 135.221 129.989 143.121 132.52 150.655" fill="#2F2E41"/>
</svg>
