<svg width="119" height="129" viewBox="0 0 119 129" fill="none" xmlns="http://www.w3.org/2000/svg">
<path d="M46.5472 128.868L27.8796 128.758C27.0023 128.758 26.2955 127.958 26.2955 126.964L25.9544 115.814L8.23718 91.6359C5.62956 88.4895 3.85054 84.9567 3.29002 80.7063L3.11943 79.4643L0.0244038 45.5438C-0.121818 43.8602 0.389958 42.149 1.53536 41.1002C2.92447 39.8306 5.11779 39.3614 6.7506 41.459C7.896 42.9494 8.45652 47.5862 8.65148 48.8282C9.30947 53.2719 9.96747 59.6199 10.065 64.0911C10.065 64.3947 10.0893 64.8087 10.1137 65.1123C10.2112 67.0719 10.6255 68.8935 11.3566 70.6875C15.3533 80.5131 23.3711 92.9331 23.3711 92.9331L23.8098 93.6783C24.151 94.2303 24.809 94.4235 25.3451 94.0923C25.93 93.7335 26.125 92.8779 25.7838 92.2431L15.1583 72.6195C14.0129 70.4391 14.6709 67.3479 16.7424 65.9127C18.8139 64.4775 21.5433 65.1951 22.6887 67.3755L33.7285 83.4387C34.4596 84.4875 35.8 86.0055 36.7504 86.7783C46.6691 94.8651 48.0095 103.09 48.8868 107.285C48.8868 107.285 48.9599 108.224 48.9843 109.576C48.9843 110.708 48.9599 112.115 48.7893 113.523L48.1313 127.019C48.1313 128.068 47.4246 128.868 46.5472 128.868ZM11.2104 43.8326C11.5272 45.0194 11.7465 46.2338 11.9171 47.393C12.4776 51.2295 13.3306 58.1571 13.3793 61.8279C13.3793 62.2143 13.4037 62.5731 13.4037 62.9595C13.7692 62.6007 14.1592 62.2419 14.5978 61.9383C15.134 61.5519 15.6945 61.2759 16.2794 61.0551C16.3037 60.9999 16.3281 60.9723 16.3525 60.9447C15.9382 57.4395 14.8415 50.8154 14.0373 47.393C13.623 45.6542 12.7457 44.3846 11.2104 43.8326ZM17.1567 48.6902C17.6441 51.2295 18.9114 55.8939 19.2038 58.3779L19.3988 60.0615C19.4231 60.2271 19.4231 60.3927 19.4231 60.5583C20.3248 60.5859 21.2265 60.8067 22.0795 61.1655C21.7871 58.9023 20.4467 54.3759 19.9593 52.2507C19.5206 50.5119 18.6433 49.2698 17.1567 48.6902ZM112.274 41.459C111.128 42.9494 110.568 47.5862 110.373 48.8282C109.715 53.2719 109.057 59.6199 108.959 64.0911C108.959 64.3947 108.935 64.8087 108.911 65.1123C108.813 67.0719 108.399 68.8935 107.668 70.6875C103.671 80.5131 95.6533 92.9331 95.6533 92.9331L95.2147 93.6783C94.8735 94.2303 94.2155 94.4235 93.6793 94.0923C93.0944 93.7335 92.8995 92.8779 93.2407 92.2431L103.842 72.6471C104.987 70.4667 104.329 67.3755 102.258 65.9403C100.186 64.5051 97.4567 65.2227 96.3113 67.4031L85.2716 83.4663C84.5405 84.5151 83.2001 86.0331 82.2497 86.8059C72.331 94.8927 70.9906 103.118 70.1133 107.313C70.1133 107.313 70.0402 108.251 70.0158 109.604C70.0158 110.735 70.0402 112.143 70.2108 113.55L70.8688 127.047C70.8688 128.04 71.5755 128.841 72.4528 128.841L91.1205 128.73C91.9978 128.73 92.7045 127.93 92.7045 126.936L93.0457 115.786L110.763 91.6083C113.371 88.4619 115.15 84.9291 115.71 80.6787L115.881 79.4367L118.976 45.5162C119.122 43.8326 118.61 42.1214 117.465 41.0726C116.1 39.8306 113.907 39.3614 112.274 41.459ZM102.696 60.9171C102.721 60.9723 102.745 60.9999 102.769 61.0275C103.354 61.2483 103.915 61.5519 104.451 61.9107C104.89 62.2143 105.28 62.5455 105.645 62.9319C105.645 62.5455 105.67 62.1867 105.67 61.8003C105.743 58.1295 106.571 51.2019 107.132 47.3654C107.302 46.2062 107.497 45.0194 107.838 43.805C106.303 44.3846 105.401 45.6266 105.012 47.3378C104.183 50.7878 103.111 57.4395 102.696 60.9171ZM96.9693 61.1103C97.8223 60.7515 98.724 60.5583 99.6257 60.5031C99.6257 60.3375 99.6257 60.1719 99.65 60.0063L99.845 58.3227C100.137 55.8663 101.38 51.2019 101.892 48.635C100.381 49.2146 99.5038 50.4566 99.1139 52.1679C98.6021 54.3207 97.2618 58.8471 96.9693 61.1103ZM94.1911 58.4883C94.1911 56.8323 93.0213 55.5075 91.5591 55.5075H28.3183C26.8561 55.5075 25.6863 56.8323 25.6863 58.4883C25.6863 60.1443 26.8561 61.4691 28.3183 61.4691H91.5591C93.0213 61.4691 94.1911 60.1443 94.1911 58.4883ZM84.7598 69.2799C84.7598 67.6239 83.59 66.2991 82.1278 66.2991H32.9974C31.5352 66.2991 30.3654 67.6239 30.3654 69.2799C30.3654 70.9359 31.5352 72.2607 32.9974 72.2607H82.1278C83.59 72.2607 84.7598 70.9359 84.7598 69.2799ZM41.795 77.1183C40.3328 77.1183 39.163 78.4431 39.163 80.0991C39.163 81.7551 40.3328 83.0799 41.795 83.0799H73.3058C74.768 83.0799 75.9378 81.7551 75.9378 80.0991C75.9378 78.4431 74.768 77.1183 73.3058 77.1183H41.795ZM79.1547 21.6146C77.0832 21.6146 75.426 23.519 75.426 25.8374C75.426 28.1834 77.1076 30.0602 79.1547 30.0602C81.2261 30.0602 82.8833 28.1558 82.8833 25.8374C82.8833 23.4914 81.2018 21.6146 79.1547 21.6146ZM39.8698 21.6146C37.7983 21.6146 36.1411 23.519 36.1411 25.8374C36.1411 28.1834 37.8227 30.0602 39.8698 30.0602C41.9413 30.0602 43.5984 28.1558 43.5984 25.8374C43.6228 23.4914 41.9413 21.6146 39.8698 21.6146ZM95.0684 43.805C95.0684 47.6414 92.3146 50.7878 88.9028 50.7878H30.1217C26.7342 50.7878 23.956 47.669 23.956 43.805V7.89737C23.956 4.06096 26.7098 0.914551 30.1217 0.914551H88.9028C92.2902 0.914551 95.0684 4.03336 95.0684 7.89737V43.805ZM89.8045 15.4322C89.3171 15.5702 88.8053 15.653 88.2691 15.653C84.8329 15.653 82.0303 12.479 82.0303 8.58737C82.0303 7.98017 82.1035 7.42816 82.2253 6.87616H36.4336C36.5067 7.29016 36.5311 7.73176 36.5311 8.17337C36.5311 12.065 33.7285 15.239 30.2923 15.239C29.9267 15.239 29.5612 15.2114 29.1956 15.1286V36.5738C29.5612 36.491 29.9267 36.4634 30.2923 36.4634C33.7285 36.4634 36.5311 39.6374 36.5311 43.529C36.5311 43.9706 36.4823 44.4122 36.4336 44.8262H82.0547C82.0303 44.5502 82.006 44.2466 82.006 43.943C82.006 40.0514 84.8086 36.8774 88.2448 36.8774C88.7809 36.8774 89.2927 36.9602 89.7801 37.0982V15.4322H89.8045ZM73.0134 25.8374C73.0134 34.283 66.9695 41.1278 59.5122 41.1278C52.0549 41.1278 46.0111 34.283 46.0111 25.8374C46.0111 17.3918 52.0549 10.547 59.5122 10.547C66.9695 10.5746 73.0134 17.4194 73.0134 25.8374ZM58.245 21.8906C58.245 21.3386 58.3668 20.897 58.6105 20.5658C58.8542 20.207 59.2198 20.0414 59.7072 20.0414C60.1946 20.0414 60.5845 20.2622 60.877 20.6762C61.1207 21.0074 61.2669 21.5042 61.2912 22.1114C61.3156 22.3874 61.535 22.6082 61.7787 22.6082L64.3132 22.553C64.5812 22.553 64.8249 22.277 64.8006 21.9734C64.7275 20.7314 64.3863 19.6826 63.7283 18.827C63.0703 17.9438 62.1686 17.3918 61.0719 17.1434V14.9906C61.0719 14.7146 60.877 14.5214 60.6576 14.5214H59.1223C58.8786 14.5214 58.708 14.7422 58.708 14.9906V17.0882C57.5382 17.2814 56.5878 17.7782 55.8567 18.551C55.0525 19.4342 54.6625 20.5382 54.6625 21.863C54.6625 23.3534 55.0525 24.485 55.8079 25.2578C56.5634 26.0306 57.7819 26.7758 59.4391 27.521C60.1215 27.8522 60.5845 28.1834 60.8526 28.5422C61.1207 28.901 61.2425 29.3702 61.2425 30.005C61.2425 30.557 61.1207 30.971 60.8526 31.3298C60.5845 31.661 60.219 31.8266 59.7072 31.8266C59.0979 31.8266 58.6105 31.6058 58.2206 31.1642C57.9038 30.8054 57.7332 30.2534 57.6601 29.5358C57.6357 29.2598 57.4164 29.039 57.1483 29.039L54.6382 29.0942C54.3701 29.0942 54.1264 29.3702 54.1508 29.6738C54.2239 31.1918 54.6382 32.351 55.4424 33.179C56.3197 34.0622 57.392 34.6142 58.6836 34.7798V36.7394C58.6836 37.0154 58.8786 37.2086 59.0979 37.2086H60.6333C60.877 37.2086 61.0475 36.9878 61.0475 36.7394V34.7246C62.0955 34.5038 62.9241 34.0346 63.5821 33.317C64.3619 32.4614 64.7275 31.3574 64.7275 29.9774C64.7275 28.5146 64.3375 27.4106 63.5821 26.6102C62.8266 25.8374 61.6081 25.037 59.9753 24.2642C59.2685 23.9054 58.7811 23.5742 58.5374 23.2154C58.3668 22.8842 58.245 22.415 58.245 21.8906Z" fill="white"/>
</svg>
