<svg width="25" height="25" viewBox="0 0 25 25" fill="none" xmlns="http://www.w3.org/2000/svg">
<g clip-path="url(#clip0_188_460)">
<path d="M24.3126 20.9993L18.5773 15.2635C17.7227 16.5926 16.5918 17.723 15.2627 18.5776L20.9985 24.3134C21.9142 25.2289 23.3989 25.2289 24.3126 24.3134C25.2283 23.3994 25.2283 21.9148 24.3126 20.9993Z" fill="white"/>
<path d="M18.7499 9.37501C18.7499 4.1978 14.5523 0 9.375 0C4.19779 0 0 4.1978 0 9.37501C0 14.5522 4.19779 18.7498 9.375 18.7498C14.5523 18.7498 18.7499 14.5522 18.7499 9.37501ZM9.375 16.406C5.49774 16.406 2.34382 13.2523 2.34382 9.37506C2.34382 5.49779 5.49774 2.34387 9.375 2.34387C13.2522 2.34387 16.4063 5.49779 16.4063 9.37506C16.4063 13.2523 13.2522 16.406 9.375 16.406Z" fill="white"/>
<path d="M3.90527 9.375H5.46758C5.46758 7.22115 7.22011 5.46877 9.3739 5.46877V3.90631C6.35889 3.90631 3.90527 6.35993 3.90527 9.375Z" fill="white"/>
</g>
<defs>
<clipPath id="clip0_188_460">
<rect width="25" height="25" fill="white"/>
</clipPath>
</defs>
</svg>
